<svg width="1909" height="409" xmlns="http://www.w3.org/2000/svg" fill-rule="evenodd" clip-rule="evenodd" stroke-linejoin="round" stroke-miterlimit="2"><path d="M196.93.541l196.925 407.997h-44.063L196.929 95.74 44.066 408.538H.003L196.929.54zm273.627 184.415H696.86v39.711H470.557v-39.711zm0-184.959h263.294V39.71H470.557V-.003zm0 368.829h263.294v39.712H470.557v-39.712zm401.471 39.712V-.002h186.046v39.71h-145.79v368.83h-40.256zm525.497 0v-183.87h-215.422v183.87h-40.256V184.956h255.678V-.003h40.255v408.54h-40.255zM1711.407.541l196.926 407.997h-44.063L1711.407 95.74l-152.863 312.798h-44.063L1711.407.54z" fill="#fff" fill-rule="nonzero"/></svg>